<svg xmlns="http://www.w3.org/2000/svg" viewBox="0 0 512 512" width="512" height="512">
  <defs>
    <linearGradient id="bg" x1="0%" y1="0%" x2="100%" y2="100%">
      <stop offset="0%" stop-color="#0f172a"/>
      <stop offset="50%" stop-color="#1e293b"/>
      <stop offset="100%" stop-color="#0284c7"/>
    </linearGradient>
    <linearGradient id="glow" x1="0%" y1="0%" x2="100%" y2="100%">
      <stop offset="0%" stop-color="#38bdf8"/>
      <stop offset="100%" stop-color="#2563eb"/>
    </linearGradient>
  </defs>
  
  <!-- App Icon Background -->
  <rect width="512" height="512" rx="112" fill="url(#bg)"/>
  
  <!-- Subtle Outer Border Ring -->
  <rect x="8" y="8" width="496" height="496" rx="104" fill="none" stroke="#38bdf8" stroke-opacity="0.3" stroke-width="6"/>

  <!-- Factory / Garments Icon Group -->
  <g transform="translate(106, 106) scale(1.17)" fill="none" stroke="url(#glow)" stroke-width="16" stroke-linecap="round" stroke-linejoin="round">
    <!-- Factory Chimneys & Roofs -->
    <path d="M16 208V80l48 32V80l48 32V48h48v160H16z" fill="#0369a1" fill-opacity="0.2" stroke="#38bdf8"/>
    <!-- Modern Enterprise Grid Windows -->
    <path d="M48 144h16v24H48zm48 0h16v24H96zm48 0h16v24h-16z" fill="#e0f2fe" stroke="#e0f2fe" stroke-width="4"/>
    <!-- Front Modern Office Structure -->
    <path d="M160 208V112h80v96H160z" fill="#1d4ed8" fill-opacity="0.4" stroke="#60a5fa"/>
    <path d="M184 136h32v20h-32zm0 32h32v20h-32z" fill="#f8fafc" stroke="#f8fafc" stroke-width="3"/>
  </g>
  
  <!-- Monogram Badge "MJAL" -->
  <rect x="136" y="372" width="240" height="56" rx="28" fill="#0284c7" fill-opacity="0.9" stroke="#7dd3fc" stroke-width="4"/>
  <text x="256" y="411" font-family="-apple-system, BlinkMacSystemFont, 'Segoe UI', Roboto, sans-serif" font-size="28" font-weight="900" fill="#ffffff" text-anchor="middle" letter-spacing="4">MJAL ERP</text>
</svg>
